<mxfile host="app.diagrams.net" modified="2023-11-03T07:14:59.064Z" agent="Mozilla/5.0 (Macintosh; Intel Mac OS X 10_15_7) AppleWebKit/537.36 (KHTML, like Gecko) Chrome/110.0.0.0 Safari/537.36" etag="QFbfm68ULg_dVKb7tU2t" version="22.0.8" type="github">
  <diagram name="Page-1" id="9EPMFbJx0SKcXHK0CWiS">
    <mxGraphModel dx="3134" dy="803" grid="1" gridSize="10" guides="1" tooltips="1" connect="1" arrows="1" fold="1" page="1" pageScale="1" pageWidth="850" pageHeight="1100" math="0" shadow="0">
      <root>
        <mxCell id="0" />
        <mxCell id="1" parent="0" />
        <mxCell id="5KIaICnGzWLjP3K4rvhd-1" value="input:&lt;br&gt;&lt;ul style=&quot;margin: 10px 0px 0px; color: rgb(23, 43, 77); font-family: -apple-system, &amp;quot;system-ui&amp;quot;, &amp;quot;Segoe UI&amp;quot;, Roboto, Oxygen, Ubuntu, &amp;quot;Fira Sans&amp;quot;, &amp;quot;Droid Sans&amp;quot;, &amp;quot;Helvetica Neue&amp;quot;, sans-serif; font-size: 14px; text-align: start; background-color: rgb(255, 255, 255);&quot;&gt;&lt;li&gt;product groups&lt;/li&gt;&lt;li&gt;itineraries&lt;/li&gt;&lt;li&gt;products by itinerary (M) =&amp;nbsp;map[itemId, &amp;lt;map[logisticSku, quantity], map[logisticSku, list&amp;lt;itineraryId&amp;gt;]&amp;gt;]&lt;/li&gt;&lt;li&gt;map[originNode, list&amp;lt;items&amp;gt;] : Mo&lt;/li&gt;&lt;li&gt;slotMap[slotId, Slot] : Ms&lt;/li&gt;&lt;/ul&gt;" style="text;html=1;align=center;verticalAlign=middle;resizable=0;points=[];autosize=1;strokeColor=#9673a6;fillColor=#e1d5e7;" vertex="1" parent="1">
          <mxGeometry x="-800" y="13" width="740" height="120" as="geometry" />
        </mxCell>
        <mxCell id="5KIaICnGzWLjP3K4rvhd-2" value="Output&lt;br&gt;&lt;ul&gt;&lt;li&gt;list (LG)&amp;nbsp;&amp;nbsp;= list&amp;lt;list&amp;lt;itemId&amp;gt;, list&amp;lt;INDEX-KEY, list&amp;lt;itemId, originNode, list&amp;lt;logisticSku, quantity, itineraryId&amp;gt;&amp;gt;&amp;gt;&amp;nbsp;&lt;span style=&quot;color: #3b4151;&quot;&gt;- logistic groups&lt;/span&gt;&lt;/li&gt;&lt;li&gt;&lt;span style=&quot;color: #3b4151;&quot;&gt;map (X) = map[INDEX-KEY, data] - INDEX-KEY to service data map.&lt;/span&gt;&lt;/li&gt;&lt;/ul&gt;" style="text;html=1;align=center;verticalAlign=middle;resizable=0;points=[];autosize=1;strokeColor=none;fillColor=none;" vertex="1" parent="1">
          <mxGeometry x="700" y="13" width="720" height="80" as="geometry" />
        </mxCell>
        <mxCell id="5KIaICnGzWLjP3K4rvhd-22" value="" style="edgeStyle=orthogonalEdgeStyle;rounded=0;orthogonalLoop=1;jettySize=auto;html=1;" edge="1" parent="1" source="5KIaICnGzWLjP3K4rvhd-13" target="5KIaICnGzWLjP3K4rvhd-21">
          <mxGeometry relative="1" as="geometry" />
        </mxCell>
        <mxCell id="5KIaICnGzWLjP3K4rvhd-13" value="&lt;div style=&quot;font-size: medium; text-align: start;&quot; data-ccp-timestamp=&quot;1698992477842&quot;&gt;Map - Mo&lt;br&gt;&lt;table style=&quot;border-collapse: collapse; width: 100pt;&quot; width=&quot;133&quot;&gt;&lt;colgroup&gt;&lt;col style=&quot;width: 100pt;&quot; width=&quot;133&quot;&gt;&lt;/colgroup&gt;&lt;tbody&gt;&lt;tr style=&quot;height: 15.75pt;&quot; height=&quot;21&quot;&gt;&lt;td style=&quot;padding-top: 1px; padding-right: 1px; padding-left: 1px; font-size: 12pt; font-weight: 700; font-style: italic; font-family: Calibri, sans-serif; vertical-align: bottom; border: none; width: 100pt; height: 15.75pt;&quot; class=&quot;xl60&quot; height=&quot;21&quot; width=&quot;133&quot;&gt;nodeVsItems&lt;/td&gt;&lt;/tr&gt;&lt;tr style=&quot;height: 15.75pt;&quot; height=&quot;21&quot;&gt;&lt;td style=&quot;padding-top: 1px; padding-right: 1px; padding-left: 1px; font-size: 12pt; font-family: Calibri, sans-serif; vertical-align: bottom; border: none; height: 15.75pt;&quot; height=&quot;21&quot;&gt;N1, &amp;lt;P1,P2,P3&amp;gt;&lt;/td&gt;&lt;/tr&gt;&lt;tr style=&quot;height: 15.75pt;&quot; height=&quot;21&quot;&gt;&lt;td style=&quot;padding-top: 1px; padding-right: 1px; padding-left: 1px; font-size: 12pt; font-family: Calibri, sans-serif; vertical-align: bottom; border: none; height: 15.75pt;&quot; height=&quot;21&quot;&gt;N2, &amp;lt;P4,P5,P6,P8&amp;gt;&lt;/td&gt;&lt;/tr&gt;&lt;tr style=&quot;height: 15.75pt;&quot; height=&quot;21&quot;&gt;&lt;td style=&quot;padding-top: 1px; padding-right: 1px; padding-left: 1px; font-size: 12pt; font-family: Calibri, sans-serif; vertical-align: bottom; border: none; height: 15.75pt;&quot; height=&quot;21&quot;&gt;N3, &amp;lt;P1,P2,P3&amp;gt;&lt;/td&gt;&lt;/tr&gt;&lt;tr style=&quot;height: 15.75pt;&quot; height=&quot;21&quot;&gt;&lt;td style=&quot;padding-top: 1px; padding-right: 1px; padding-left: 1px; font-size: 12pt; font-family: Calibri, sans-serif; vertical-align: bottom; border: none; height: 15.75pt;&quot; height=&quot;21&quot;&gt;N4, &amp;lt;P4,P5,P6,P7&amp;gt;&lt;/td&gt;&lt;/tr&gt;&lt;tr style=&quot;height: 15.75pt;&quot; height=&quot;21&quot;&gt;&lt;td style=&quot;padding-top: 1px; padding-right: 1px; padding-left: 1px; font-size: 12pt; font-family: Calibri, sans-serif; vertical-align: bottom; border: none; height: 15.75pt;&quot; height=&quot;21&quot;&gt;N5, &amp;lt;P4,P8,P9&amp;gt;&lt;/td&gt;&lt;/tr&gt;&lt;tr style=&quot;height: 15.75pt;&quot; height=&quot;21&quot;&gt;&lt;td style=&quot;padding-top: 1px; padding-right: 1px; padding-left: 1px; font-size: 12pt; font-family: Calibri, sans-serif; vertical-align: bottom; border: none; height: 15.75pt;&quot; height=&quot;21&quot;&gt;N6 &amp;lt;P5,P7,P9,P10&amp;gt;&lt;/td&gt;&lt;/tr&gt;&lt;/tbody&gt;&lt;/table&gt;&lt;/div&gt;" style="text;html=1;align=center;verticalAlign=middle;resizable=0;points=[];autosize=1;strokeColor=#9673a6;fillColor=#e1d5e7;" vertex="1" parent="1">
          <mxGeometry x="-745" y="190" width="170" height="190" as="geometry" />
        </mxCell>
        <mxCell id="5KIaICnGzWLjP3K4rvhd-16" value="&lt;div style=&quot;font-size: medium; text-align: start;&quot; data-ccp-timestamp=&quot;1698992477842&quot;&gt;&lt;br&gt;&lt;/div&gt;" style="text;html=1;align=center;verticalAlign=middle;resizable=0;points=[];autosize=1;strokeColor=none;fillColor=none;" vertex="1" parent="1">
          <mxGeometry x="-420" y="168" width="20" height="30" as="geometry" />
        </mxCell>
        <mxCell id="5KIaICnGzWLjP3K4rvhd-29" value="" style="edgeStyle=orthogonalEdgeStyle;rounded=0;orthogonalLoop=1;jettySize=auto;html=1;" edge="1" parent="1" source="5KIaICnGzWLjP3K4rvhd-21" target="5KIaICnGzWLjP3K4rvhd-28">
          <mxGeometry relative="1" as="geometry" />
        </mxCell>
        <mxCell id="5KIaICnGzWLjP3K4rvhd-21" value="&lt;div style=&quot;font-size: medium; text-align: start;&quot; data-ccp-timestamp=&quot;1698992477842&quot;&gt;&lt;div style=&quot;&quot; data-ccp-timestamp=&quot;1698992558448&quot;&gt;&lt;table style=&quot;border-collapse: collapse; width: 100pt;&quot; width=&quot;133&quot;&gt;&lt;colgroup&gt;&lt;col style=&quot;width: 100pt;&quot; width=&quot;133&quot;&gt;&lt;/colgroup&gt;&lt;tbody&gt;&lt;tr style=&quot;height: 15.75pt;&quot; height=&quot;21&quot;&gt;&lt;td style=&quot;padding-top: 1px; padding-right: 1px; padding-left: 1px; font-size: 12pt; font-weight: 700; font-style: italic; font-family: Calibri, sans-serif; vertical-align: bottom; border: none; width: 100pt; height: 15.75pt;&quot; class=&quot;xl60&quot; height=&quot;21&quot; width=&quot;133&quot;&gt;sorted by count and rank&lt;/td&gt;&lt;/tr&gt;&lt;tr style=&quot;height: 15.75pt;&quot; height=&quot;21&quot;&gt;&lt;td style=&quot;padding-top: 1px; padding-right: 1px; padding-left: 1px; font-size: 12pt; font-family: Calibri, sans-serif; vertical-align: bottom; border: none; height: 15.75pt;&quot; height=&quot;21&quot;&gt;Map - Ms&lt;br&gt;N6 &amp;lt;P5,P7,P9,P10&amp;gt;&lt;/td&gt;&lt;/tr&gt;&lt;tr style=&quot;height: 15.75pt;&quot; height=&quot;21&quot;&gt;&lt;td style=&quot;padding-top: 1px; padding-right: 1px; padding-left: 1px; font-size: 12pt; font-family: Calibri, sans-serif; vertical-align: bottom; border: none; height: 15.75pt;&quot; height=&quot;21&quot;&gt;N2, &amp;lt;P4,P5,P6,P8&amp;gt;&lt;/td&gt;&lt;/tr&gt;&lt;tr style=&quot;height: 15.75pt;&quot; height=&quot;21&quot;&gt;&lt;td style=&quot;padding-top: 1px; padding-right: 1px; padding-left: 1px; font-size: 12pt; font-family: Calibri, sans-serif; vertical-align: bottom; border: none; height: 15.75pt;&quot; height=&quot;21&quot;&gt;N4, &amp;lt;P4,P5,P6,P7&amp;gt;&lt;/td&gt;&lt;/tr&gt;&lt;tr style=&quot;height: 15.75pt;&quot; height=&quot;21&quot;&gt;&lt;td style=&quot;padding-top: 1px; padding-right: 1px; padding-left: 1px; font-size: 12pt; font-family: Calibri, sans-serif; vertical-align: bottom; border: none; height: 15.75pt;&quot; height=&quot;21&quot;&gt;N1, &amp;lt;P1,P2,P3&amp;gt;&lt;/td&gt;&lt;/tr&gt;&lt;tr style=&quot;height: 15.75pt;&quot; height=&quot;21&quot;&gt;&lt;td style=&quot;padding-top: 1px; padding-right: 1px; padding-left: 1px; font-size: 12pt; font-family: Calibri, sans-serif; vertical-align: bottom; border: none; height: 15.75pt;&quot; height=&quot;21&quot;&gt;N3, &amp;lt;P1,P2,P3&amp;gt;&lt;/td&gt;&lt;/tr&gt;&lt;tr style=&quot;height: 15.75pt;&quot; height=&quot;21&quot;&gt;&lt;td style=&quot;padding-top: 1px; padding-right: 1px; padding-left: 1px; font-size: 12pt; font-family: Calibri, sans-serif; vertical-align: bottom; border: none; height: 15.75pt;&quot; height=&quot;21&quot;&gt;N5, &amp;lt;P4,P8,P9&amp;gt;&lt;/td&gt;&lt;/tr&gt;&lt;/tbody&gt;&lt;/table&gt;&lt;/div&gt;&lt;/div&gt;" style="text;html=1;align=center;verticalAlign=middle;resizable=0;points=[];autosize=1;strokeColor=#9673a6;fillColor=#e1d5e7;" vertex="1" parent="1">
          <mxGeometry x="-520" y="190" width="220" height="190" as="geometry" />
        </mxCell>
        <mxCell id="5KIaICnGzWLjP3K4rvhd-23" value="&lt;div style=&quot;font-size: medium; text-align: start;&quot; data-ccp-timestamp=&quot;1698992477842&quot;&gt;&lt;div style=&quot;&quot; data-ccp-timestamp=&quot;1698992632700&quot;&gt;&lt;br&gt;&lt;/div&gt;&lt;/div&gt;" style="text;html=1;align=center;verticalAlign=middle;resizable=0;points=[];autosize=1;strokeColor=none;fillColor=none;" vertex="1" parent="1">
          <mxGeometry x="-165" y="350" width="20" height="30" as="geometry" />
        </mxCell>
        <mxCell id="5KIaICnGzWLjP3K4rvhd-25" value="&lt;div style=&quot;font-size: medium; text-align: start;&quot; data-ccp-timestamp=&quot;1698992477842&quot;&gt;&lt;div style=&quot;&quot; data-ccp-timestamp=&quot;1698992558448&quot;&gt;&lt;div style=&quot;&quot; data-ccp-timestamp=&quot;1698992659482&quot;&gt;&lt;br&gt;&lt;/div&gt;&lt;/div&gt;&lt;/div&gt;" style="text;html=1;align=center;verticalAlign=middle;resizable=0;points=[];autosize=1;strokeColor=none;fillColor=none;" vertex="1" parent="1">
          <mxGeometry x="-85" y="350" width="20" height="30" as="geometry" />
        </mxCell>
        <mxCell id="5KIaICnGzWLjP3K4rvhd-33" value="" style="edgeStyle=orthogonalEdgeStyle;rounded=0;orthogonalLoop=1;jettySize=auto;html=1;" edge="1" parent="1" source="5KIaICnGzWLjP3K4rvhd-28" target="5KIaICnGzWLjP3K4rvhd-30">
          <mxGeometry relative="1" as="geometry" />
        </mxCell>
        <mxCell id="5KIaICnGzWLjP3K4rvhd-28" value="&lt;div style=&quot;font-size: medium; text-align: start;&quot; data-ccp-timestamp=&quot;1698992477842&quot;&gt;&lt;div style=&quot;&quot; data-ccp-timestamp=&quot;1698992558448&quot;&gt;&lt;table style=&quot;border-collapse: collapse; width: 100pt;&quot; width=&quot;133&quot;&gt;&lt;colgroup&gt;&lt;col style=&quot;width: 100pt;&quot; width=&quot;133&quot;&gt;&lt;/colgroup&gt;&lt;tbody&gt;&lt;tr style=&quot;height: 15.75pt;&quot; height=&quot;21&quot;&gt;&lt;td style=&quot;padding-top: 1px; padding-right: 1px; padding-left: 1px; font-size: 12pt; font-weight: 700; font-style: italic; font-family: Calibri, sans-serif; vertical-align: bottom; border: none; width: 100pt; height: 15.75pt;&quot; class=&quot;xl60&quot; height=&quot;21&quot; width=&quot;133&quot;&gt;pick first entry &lt;br&gt;from map Ms&lt;/td&gt;&lt;/tr&gt;&lt;tr style=&quot;height: 15.75pt;&quot; height=&quot;21&quot;&gt;&lt;td style=&quot;padding-top: 1px; padding-right: 1px; padding-left: 1px; font-size: 12pt; font-family: Calibri, sans-serif; vertical-align: bottom; border: none; height: 15.75pt;&quot; height=&quot;21&quot;&gt;N6 &amp;lt;P5,P7,P9,P10&amp;gt;&lt;br&gt;&lt;/td&gt;&lt;/tr&gt;&lt;tr style=&quot;height: 15.75pt;&quot; height=&quot;21&quot;&gt;&lt;td style=&quot;padding-top: 1px; padding-right: 1px; padding-left: 1px; font-size: 12pt; font-family: Calibri, sans-serif; vertical-align: bottom; border: none; height: 15.75pt;&quot; height=&quot;21&quot;&gt;&lt;br&gt;&lt;/td&gt;&lt;/tr&gt;&lt;/tbody&gt;&lt;/table&gt;&lt;/div&gt;&lt;/div&gt;" style="text;html=1;align=center;verticalAlign=middle;resizable=0;points=[];autosize=1;strokeColor=#b85450;fillColor=#f8cecc;" vertex="1" parent="1">
          <mxGeometry x="-240" y="235" width="170" height="100" as="geometry" />
        </mxCell>
        <mxCell id="5KIaICnGzWLjP3K4rvhd-45" value="" style="edgeStyle=orthogonalEdgeStyle;rounded=0;orthogonalLoop=1;jettySize=auto;html=1;" edge="1" parent="1" source="5KIaICnGzWLjP3K4rvhd-30" target="5KIaICnGzWLjP3K4rvhd-44">
          <mxGeometry relative="1" as="geometry" />
        </mxCell>
        <mxCell id="5KIaICnGzWLjP3K4rvhd-30" value="&lt;div style=&quot;font-size: medium; text-align: start;&quot; data-ccp-timestamp=&quot;1698992477842&quot;&gt;&lt;div style=&quot;&quot; data-ccp-timestamp=&quot;1698992558448&quot;&gt;N6 &amp;lt;P5,P7,P9,P10&amp;gt;&lt;br&gt;Missing Map &amp;lt;123468-9&amp;gt;&lt;br&gt;&lt;br&gt;&lt;/div&gt;&lt;div style=&quot;&quot; data-ccp-timestamp=&quot;1698992558448&quot;&gt;Create map&lt;br&gt;&lt;table style=&quot;border-color: var(--border-color); border-collapse: collapse; width: 100pt;&quot; width=&quot;133&quot;&gt;&lt;tbody style=&quot;border-color: var(--border-color);&quot;&gt;&lt;tr style=&quot;border-color: var(--border-color); height: 15.75pt;&quot; height=&quot;21&quot;&gt;&lt;td style=&quot;border: none; padding-top: 1px; padding-right: 1px; padding-left: 1px; font-size: 12pt; font-family: Calibri, sans-serif; vertical-align: bottom; height: 15.75pt;&quot; height=&quot;21&quot;&gt;sort by count and ranking&lt;/td&gt;&lt;/tr&gt;&lt;tr style=&quot;border-color: var(--border-color); height: 15.75pt;&quot; height=&quot;21&quot;&gt;&lt;td style=&quot;border: none; padding-top: 1px; padding-right: 1px; padding-left: 1px; font-size: 12pt; font-family: Calibri, sans-serif; vertical-align: bottom; height: 15.75pt;&quot; height=&quot;21&quot;&gt;N2, &amp;lt;P4,P6,P8&amp;gt;&lt;/td&gt;&lt;/tr&gt;&lt;tr style=&quot;border-color: var(--border-color); height: 15.75pt;&quot; height=&quot;21&quot;&gt;&lt;td style=&quot;border: none; padding-top: 1px; padding-right: 1px; padding-left: 1px; font-size: 12pt; font-family: Calibri, sans-serif; vertical-align: bottom; height: 15.75pt;&quot; height=&quot;21&quot;&gt;&lt;br&gt;&lt;/td&gt;&lt;/tr&gt;&lt;tr style=&quot;border-color: var(--border-color); height: 15.75pt;&quot; height=&quot;21&quot;&gt;&lt;td style=&quot;border: none; padding-top: 1px; padding-right: 1px; padding-left: 1px; font-size: 12pt; font-family: Calibri, sans-serif; vertical-align: bottom; height: 15.75pt;&quot; height=&quot;21&quot;&gt;N1, &amp;lt;P1,P2,P3&amp;gt;&lt;/td&gt;&lt;/tr&gt;&lt;tr style=&quot;border-color: var(--border-color); height: 15.75pt;&quot; height=&quot;21&quot;&gt;&lt;td style=&quot;border: none; padding-top: 1px; padding-right: 1px; padding-left: 1px; font-size: 12pt; font-family: Calibri, sans-serif; vertical-align: bottom; height: 15.75pt;&quot; height=&quot;21&quot;&gt;N3, &amp;lt;P1,P2,P3&amp;gt;&lt;/td&gt;&lt;/tr&gt;&lt;tr style=&quot;border-color: var(--border-color); height: 15.75pt;&quot; height=&quot;21&quot;&gt;&lt;td style=&quot;border: none; padding-top: 1px; padding-right: 1px; padding-left: 1px; font-size: 12pt; font-family: Calibri, sans-serif; vertical-align: bottom; height: 15.75pt;&quot; height=&quot;21&quot;&gt;N5, &amp;lt;P4,P8,P9&amp;gt;&lt;br&gt;N4, &amp;lt;P4,P6&amp;gt;&lt;br&gt;&lt;/td&gt;&lt;/tr&gt;&lt;/tbody&gt;&lt;/table&gt;&lt;/div&gt;&lt;/div&gt;" style="text;html=1;align=center;verticalAlign=middle;resizable=0;points=[];autosize=1;fillColor=#f8cecc;strokeColor=#b85450;" vertex="1" parent="1">
          <mxGeometry x="-260" y="410" width="210" height="250" as="geometry" />
        </mxCell>
        <mxCell id="5KIaICnGzWLjP3K4rvhd-34" value="&lt;div style=&quot;font-size: medium; text-align: start;&quot; data-ccp-timestamp=&quot;1698992477842&quot;&gt;&lt;div style=&quot;&quot; data-ccp-timestamp=&quot;1698992558448&quot;&gt;Find next N2 from temp map&lt;br&gt;N2, &amp;lt;P4,P6,P8&amp;gt;&lt;br style=&quot;border-color: var(--border-color);&quot;&gt;missing 123-9&lt;br&gt;&lt;table style=&quot;border-color: var(--border-color); border-collapse: collapse; width: 100pt;&quot; width=&quot;133&quot;&gt;&lt;tbody style=&quot;border-color: var(--border-color);&quot;&gt;&lt;tr style=&quot;border-color: var(--border-color); height: 15.75pt;&quot; height=&quot;21&quot;&gt;&lt;td style=&quot;border: none; padding-top: 1px; padding-right: 1px; padding-left: 1px; font-size: 12pt; font-family: Calibri, sans-serif; vertical-align: bottom; height: 15.75pt;&quot; height=&quot;21&quot;&gt;&amp;nbsp;Temp map:&lt;/td&gt;&lt;/tr&gt;&lt;tr style=&quot;border-color: var(--border-color); height: 15.75pt;&quot; height=&quot;21&quot;&gt;&lt;td style=&quot;border: none; padding-top: 1px; padding-right: 1px; padding-left: 1px; font-size: 12pt; font-family: Calibri, sans-serif; vertical-align: bottom; height: 15.75pt;&quot; height=&quot;21&quot;&gt;&lt;br style=&quot;border-color: var(--border-color);&quot;&gt;&lt;/td&gt;&lt;/tr&gt;&lt;tr style=&quot;border-color: var(--border-color); height: 15.75pt;&quot; height=&quot;21&quot;&gt;&lt;td style=&quot;border: none; padding-top: 1px; padding-right: 1px; padding-left: 1px; font-size: 12pt; font-family: Calibri, sans-serif; vertical-align: bottom; height: 15.75pt;&quot; height=&quot;21&quot;&gt;N1, &amp;lt;P1,P2,P3&amp;gt;&lt;/td&gt;&lt;/tr&gt;&lt;tr style=&quot;border-color: var(--border-color); height: 15.75pt;&quot; height=&quot;21&quot;&gt;&lt;td style=&quot;border: none; padding-top: 1px; padding-right: 1px; padding-left: 1px; font-size: 12pt; font-family: Calibri, sans-serif; vertical-align: bottom; height: 15.75pt;&quot; height=&quot;21&quot;&gt;N3, &amp;lt;P1,P2,P3&amp;gt;&lt;/td&gt;&lt;/tr&gt;&lt;tr style=&quot;border-color: var(--border-color); height: 15.75pt;&quot; height=&quot;21&quot;&gt;&lt;td style=&quot;border: none; padding-top: 1px; padding-right: 1px; padding-left: 1px; font-size: 12pt; font-family: Calibri, sans-serif; vertical-align: bottom; height: 15.75pt;&quot; height=&quot;21&quot;&gt;N5, &amp;lt;P9&amp;gt;&lt;br style=&quot;border-color: var(--border-color);&quot;&gt;N4, &amp;lt;&amp;gt;&lt;/td&gt;&lt;/tr&gt;&lt;/tbody&gt;&lt;/table&gt;&lt;/div&gt;&lt;/div&gt;" style="text;html=1;align=center;verticalAlign=middle;resizable=0;points=[];autosize=1;strokeColor=#b85450;fillColor=#f8cecc;" vertex="1" parent="1">
          <mxGeometry x="-270" y="740" width="230" height="200" as="geometry" />
        </mxCell>
        <mxCell id="5KIaICnGzWLjP3K4rvhd-47" value="" style="edgeStyle=orthogonalEdgeStyle;rounded=0;orthogonalLoop=1;jettySize=auto;html=1;" edge="1" parent="1" source="5KIaICnGzWLjP3K4rvhd-44" target="5KIaICnGzWLjP3K4rvhd-46">
          <mxGeometry relative="1" as="geometry" />
        </mxCell>
        <mxCell id="5KIaICnGzWLjP3K4rvhd-44" value="&lt;div style=&quot;font-size: medium; text-align: start;&quot; data-ccp-timestamp=&quot;1698992477842&quot;&gt;&lt;div style=&quot;&quot; data-ccp-timestamp=&quot;1698992558448&quot;&gt;&lt;br&gt;&lt;/div&gt;&lt;div style=&quot;&quot; data-ccp-timestamp=&quot;1698992558448&quot;&gt;&lt;br&gt;Check slot for each&amp;nbsp;&lt;br&gt;&amp;lt;P5,P7,P9,P10&amp;gt;&lt;span style=&quot;background-color: initial;&quot;&gt;&amp;nbsp;item &lt;br&gt;from node&amp;nbsp;&lt;/span&gt;N6&lt;br&gt;&amp;lt;Node_Item, slotId&amp;gt;&lt;br&gt;N6_P5 - &amp;lt;sid1,&amp;nbsp;sid3&lt;span style=&quot;background-color: initial; border-color: var(--border-color);&quot;&gt;&amp;nbsp;&lt;/span&gt;&lt;span style=&quot;background-color: initial;&quot;&gt;&amp;gt;&lt;/span&gt;&lt;/div&gt;&lt;div style=&quot;&quot; data-ccp-timestamp=&quot;1698992558448&quot;&gt;N6_P7 - &amp;lt;sid1,&amp;nbsp;sid3&lt;span style=&quot;background-color: initial; border-color: var(--border-color);&quot;&gt;&amp;nbsp;&lt;/span&gt;&lt;span style=&quot;background-color: initial;&quot;&gt;&amp;gt;&lt;/span&gt;&lt;/div&gt;&lt;div style=&quot;&quot; data-ccp-timestamp=&quot;1698992558448&quot;&gt;N6_P9 - &amp;lt;sid2&lt;span style=&quot;background-color: initial; border-color: var(--border-color);&quot;&gt;&amp;nbsp;&lt;/span&gt;&lt;span style=&quot;background-color: initial;&quot;&gt;&amp;gt;&lt;/span&gt;&lt;/div&gt;&lt;div style=&quot;&quot; data-ccp-timestamp=&quot;1698992558448&quot;&gt;N6_P10 - &amp;lt;sid1,&amp;nbsp;&lt;span style=&quot;background-color: initial;&quot;&gt;sid3&lt;/span&gt;&lt;span style=&quot;background-color: initial; border-color: var(--border-color);&quot;&gt;&amp;nbsp;&lt;/span&gt;&lt;span style=&quot;background-color: initial;&quot;&gt;&amp;gt;&lt;/span&gt;&lt;/div&gt;&lt;/div&gt;" style="text;html=1;align=center;verticalAlign=middle;resizable=0;points=[];autosize=1;strokeColor=#b85450;fillColor=#f8cecc;" vertex="1" parent="1">
          <mxGeometry x="-505" y="430" width="190" height="210" as="geometry" />
        </mxCell>
        <mxCell id="5KIaICnGzWLjP3K4rvhd-51" style="edgeStyle=orthogonalEdgeStyle;rounded=0;orthogonalLoop=1;jettySize=auto;html=1;entryX=1;entryY=0.5;entryDx=0;entryDy=0;" edge="1" parent="1" source="5KIaICnGzWLjP3K4rvhd-46" target="5KIaICnGzWLjP3K4rvhd-50">
          <mxGeometry relative="1" as="geometry" />
        </mxCell>
        <mxCell id="5KIaICnGzWLjP3K4rvhd-46" value="&lt;div style=&quot;font-size: medium; text-align: start;&quot; data-ccp-timestamp=&quot;1698992477842&quot;&gt;&lt;div style=&quot;&quot; data-ccp-timestamp=&quot;1698992558448&quot;&gt;Add this sub-LG to BestLG&amp;nbsp;&lt;br&gt;for items P5,P7,P10&amp;nbsp;&lt;br&gt;&lt;/div&gt;&lt;div style=&quot;&quot; data-ccp-timestamp=&quot;1698992558448&quot;&gt;from N6 having slot&amp;nbsp;&lt;br&gt;sid1 and sid3&lt;br&gt;&amp;nbsp;and&lt;br&gt;add P9 in missing&amp;nbsp;&lt;/div&gt;&lt;/div&gt;" style="text;html=1;align=center;verticalAlign=middle;resizable=0;points=[];autosize=1;strokeColor=#b85450;fillColor=#f8cecc;" vertex="1" parent="1">
          <mxGeometry x="-785" y="470" width="220" height="130" as="geometry" />
        </mxCell>
        <mxCell id="5KIaICnGzWLjP3K4rvhd-48" value="&lt;div style=&quot;font-size: medium; text-align: start;&quot; data-ccp-timestamp=&quot;1698992477842&quot;&gt;&lt;div style=&quot;&quot; data-ccp-timestamp=&quot;1698992558448&quot;&gt;&lt;br&gt;&lt;/div&gt;&lt;/div&gt;" style="text;html=1;align=center;verticalAlign=middle;resizable=0;points=[];autosize=1;strokeColor=none;fillColor=none;" vertex="1" parent="1">
          <mxGeometry x="-945" y="460" width="20" height="30" as="geometry" />
        </mxCell>
        <mxCell id="5KIaICnGzWLjP3K4rvhd-50" value="Stop" style="ellipse;whiteSpace=wrap;html=1;aspect=fixed;" vertex="1" parent="1">
          <mxGeometry x="-1200" y="495" width="80" height="80" as="geometry" />
        </mxCell>
        <mxCell id="5KIaICnGzWLjP3K4rvhd-52" style="edgeStyle=orthogonalEdgeStyle;rounded=0;orthogonalLoop=1;jettySize=auto;html=1;entryX=0.504;entryY=-0.033;entryDx=0;entryDy=0;entryPerimeter=0;" edge="1" parent="1" source="5KIaICnGzWLjP3K4rvhd-30" target="5KIaICnGzWLjP3K4rvhd-34">
          <mxGeometry relative="1" as="geometry" />
        </mxCell>
        <mxCell id="5KIaICnGzWLjP3K4rvhd-53" value="&lt;div style=&quot;font-size: medium; text-align: start;&quot; data-ccp-timestamp=&quot;1698992477842&quot;&gt;&lt;div style=&quot;&quot; data-ccp-timestamp=&quot;1698992558448&quot;&gt;&lt;br&gt;&lt;/div&gt;&lt;div style=&quot;&quot; data-ccp-timestamp=&quot;1698992558448&quot;&gt;&lt;br&gt;Check slot for each&amp;nbsp;&lt;br&gt;&amp;lt;P4,P6,P8&amp;gt;&lt;span style=&quot;background-color: initial;&quot;&gt;&amp;nbsp;item &lt;br&gt;from node&amp;nbsp;&lt;/span&gt;N2&lt;br&gt;&amp;lt;Node_Item slotId&amp;gt;&lt;br&gt;N2_P4 - &amp;lt;sid4,&amp;nbsp;sid5&amp;nbsp;&lt;span style=&quot;background-color: initial;&quot;&gt;&amp;gt;&lt;/span&gt;&lt;/div&gt;&lt;div style=&quot;&quot; data-ccp-timestamp=&quot;1698992558448&quot;&gt;N2_P6 - &amp;lt;sid4,&amp;nbsp;sid5&amp;nbsp;&lt;span style=&quot;background-color: initial;&quot;&gt;&amp;gt;&lt;/span&gt;&lt;/div&gt;&lt;div style=&quot;&quot; data-ccp-timestamp=&quot;1698992558448&quot;&gt;N2_P8 - &amp;lt;sid4,&amp;nbsp;sid5&amp;nbsp;&lt;span style=&quot;background-color: initial;&quot;&gt;&amp;gt;&lt;/span&gt;&lt;/div&gt;&lt;/div&gt;" style="text;html=1;align=center;verticalAlign=middle;resizable=0;points=[];autosize=1;strokeColor=#b85450;fillColor=#f8cecc;" vertex="1" parent="1">
          <mxGeometry x="-500" y="749" width="180" height="190" as="geometry" />
        </mxCell>
        <mxCell id="5KIaICnGzWLjP3K4rvhd-54" style="edgeStyle=orthogonalEdgeStyle;rounded=0;orthogonalLoop=1;jettySize=auto;html=1;entryX=1.022;entryY=0.479;entryDx=0;entryDy=0;entryPerimeter=0;" edge="1" parent="1" source="5KIaICnGzWLjP3K4rvhd-34" target="5KIaICnGzWLjP3K4rvhd-53">
          <mxGeometry relative="1" as="geometry" />
        </mxCell>
        <mxCell id="5KIaICnGzWLjP3K4rvhd-55" value="Ms -&amp;nbsp;&lt;br&gt;map[nodeId , itemWithRank]" style="text;html=1;align=center;verticalAlign=middle;resizable=0;points=[];autosize=1;strokeColor=#6c8ebf;fillColor=#dae8fc;" vertex="1" parent="1">
          <mxGeometry x="-980" y="93" width="170" height="40" as="geometry" />
        </mxCell>
        <mxCell id="5KIaICnGzWLjP3K4rvhd-58" style="edgeStyle=orthogonalEdgeStyle;rounded=0;orthogonalLoop=1;jettySize=auto;html=1;" edge="1" parent="1" source="5KIaICnGzWLjP3K4rvhd-56">
          <mxGeometry relative="1" as="geometry">
            <mxPoint x="-1160" y="580" as="targetPoint" />
          </mxGeometry>
        </mxCell>
        <mxCell id="5KIaICnGzWLjP3K4rvhd-56" value="&lt;div style=&quot;font-size: medium; text-align: start;&quot; data-ccp-timestamp=&quot;1698992477842&quot;&gt;&lt;div style=&quot;&quot; data-ccp-timestamp=&quot;1698992558448&quot;&gt;Add this sub-LG to BestLG&amp;nbsp;&lt;br&gt;for items P4,P6,P8&amp;nbsp;&lt;br&gt;&lt;/div&gt;&lt;div style=&quot;&quot; data-ccp-timestamp=&quot;1698992558448&quot;&gt;from N2 having slot&amp;nbsp;&lt;br&gt;sid4 and sid5&lt;br&gt;and no any item have to add in&amp;nbsp;&lt;br&gt;missing because of Slot&amp;nbsp;&lt;/div&gt;&lt;/div&gt;" style="text;html=1;align=center;verticalAlign=middle;resizable=0;points=[];autosize=1;strokeColor=#b85450;fillColor=#f8cecc;" vertex="1" parent="1">
          <mxGeometry x="-800" y="778" width="250" height="130" as="geometry" />
        </mxCell>
        <mxCell id="5KIaICnGzWLjP3K4rvhd-57" style="edgeStyle=orthogonalEdgeStyle;rounded=0;orthogonalLoop=1;jettySize=auto;html=1;entryX=1.012;entryY=0.508;entryDx=0;entryDy=0;entryPerimeter=0;" edge="1" parent="1" source="5KIaICnGzWLjP3K4rvhd-53" target="5KIaICnGzWLjP3K4rvhd-56">
          <mxGeometry relative="1" as="geometry" />
        </mxCell>
      </root>
    </mxGraphModel>
  </diagram>
</mxfile>
